<?xml version="1.0" encoding="UTF-8" standalone="no"?>
<!DOCTYPE svg PUBLIC "-//W3C//DTD SVG 1.1//EN" "http://www.w3.org/Graphics/SVG/1.1/DTD/svg11.dtd">
<svg width="100%" height="100%" viewBox="0 0 8725 2724" version="1.1" xmlns="http://www.w3.org/2000/svg" xmlns:xlink="http://www.w3.org/1999/xlink" xml:space="preserve" xmlns:serif="http://www.serif.com/" style="fill-rule:evenodd;clip-rule:evenodd;stroke-linejoin:round;stroke-miterlimit:2;">
    <g transform="matrix(1,0,0,1,-221.096,-3221.59)">
        <g transform="matrix(1.52061,0,0,1.52061,-1539.77,-2565.99)">
            <g transform="matrix(0.4296,0,0,0.4296,1909.21,2383.71)">
                <g transform="matrix(1869.31,0,0,1869.31,8058.31,4726)">
                </g>
                <text x="2456px" y="4726px" style="font-family:'Montserrat-Medium', 'Montserrat';font-weight:500;font-size:1869.31px;fill:rgb(4,79,118);">P<tspan x="3770.12px 4450.55px " y="4726px 4726px ">ra</tspan>xis</text>
            </g>
        </g>
        <g transform="matrix(1.52061,0,0,1.52061,-1539.77,-2565.99)">
            <g transform="matrix(0.842711,0,0,0.842711,-455.767,537.866)">
                <g transform="matrix(1869.31,0,0,1869.31,8727.06,5992.34)">
                </g>
                <text x="3962.2px" y="5992.34px" style="font-family:'Montserrat-Medium', 'Montserrat';font-weight:500;font-size:1869.31px;fill:rgb(0,53,80);">Bec<tspan x="7575.57px " y="5992.34px ">k</tspan></text>
            </g>
        </g>
        <g transform="matrix(0.7904,0,0,0.7904,-728.966,896.754)">
            <g transform="matrix(1,0,0,1,0,-112.309)">
                <rect x="2425" y="3317" width="473" height="1143" style="fill:rgb(4,79,118);"/>
            </g>
            <g transform="matrix(1,0,0,1,0,1663.69)">
                <rect x="2425" y="3317" width="473" height="1143" style="fill:rgb(4,79,118);"/>
            </g>
            <g transform="matrix(6.12323e-17,1,-1,6.12323e-17,5662,2002.69)">
                <rect x="2425" y="3317" width="473" height="1143" style="fill:rgb(4,79,118);"/>
            </g>
            <g transform="matrix(6.12323e-17,1,-1,6.12323e-17,7438,2002.69)">
                <rect x="2425" y="3317" width="473" height="1143" style="fill:rgb(4,79,118);"/>
            </g>
        </g>
    </g>
</svg>
